<?xml version="1.0" encoding="UTF-8" standalone="no"?>
<svg width="40px" height="18px" viewBox="0 0 40 18" version="1.1" xmlns="http://www.w3.org/2000/svg" xmlns:xlink="http://www.w3.org/1999/xlink">
    <!-- Generator: Sketch 3.8.3 (29802) - http://www.bohemiancoding.com/sketch -->
    <title>Group 6</title>
    <desc>Created with Sketch.</desc>
    <defs></defs>
    <g id="Page-1" stroke="none" stroke-width="1" fill="none" fill-rule="evenodd">
        <g id="Desktop-HD" transform="translate(-938.000000, -296.000000)" fill="#FFFFFF">
            <g id="Group-6" transform="translate(938.000000, 296.000000)">
                <path d="M0,9 C0,4.02943725 4.03700043,0 9.00170731,0 L30.9982927,0 C35.9697984,0 40,4.02834436 40,9 C40,13.9705627 35.9629996,18 30.9982927,18 L9.00170731,18 C4.03020164,18 0,13.9716556 0,9 Z M12.9375,8.4375 L9.5625,8.4375 L9.5625,5.0625 C9.5625,4.725 9.3375,4.5 9,4.5 C8.6625,4.5 8.4375,4.725 8.4375,5.0625 L8.4375,8.4375 L5.0625,8.4375 C4.725,8.4375 4.5,8.6625 4.5,9 C4.5,9.3375 4.725,9.5625 5.0625,9.5625 L8.4375,9.5625 L8.4375,12.9375 C8.4375,13.275 8.6625,13.5 9,13.5 C9.3375,13.5 9.5625,13.275 9.5625,12.9375 L9.5625,9.5625 L12.9375,9.5625 C13.275,9.5625 13.5,9.3375 13.5,9 C13.5,8.6625 13.275,8.4375 12.9375,8.4375 Z M20.8505859,12.5 L22.2875977,12.5 L20.0859375,6.15869141 L18.5258789,6.15869141 L16.3242188,12.5 L17.6557617,12.5 L18.1435547,10.9882812 L20.371582,10.9882812 L20.8505859,12.5 Z M19.2246094,7.47705078 L19.3037109,7.47705078 L20.090332,9.96435547 L18.4291992,9.96435547 L19.2246094,7.47705078 Z M28.0795898,11.3442383 L25.2583008,11.3442383 L25.2583008,6.15869141 L23.9311523,6.15869141 L23.9311523,12.5 L28.0795898,12.5 L28.0795898,11.3442383 Z M33.9946289,11.3442383 L31.1733398,11.3442383 L31.1733398,6.15869141 L29.8461914,6.15869141 L29.8461914,12.5 L33.9946289,12.5 L33.9946289,11.3442383 Z" id="Combined-Shape"></path>
            </g>
        </g>
    </g>
</svg>