<svg width="18" height="18" viewBox="0 0 18 18" xmlns="http://www.w3.org/2000/svg"><g fill="#FFF" fill-rule="evenodd"><path d="M9 13.5c-.338 0-.563-.225-.563-.563V7.314c0-.338.226-.563.563-.563.338 0 .563.225.563.563v5.625c0 .337-.226.562-.563.562z"/><path d="M9 1.125c4.33 0 7.875 3.544 7.875 7.875 0 4.33-3.544 7.875-7.875 7.875-4.33 0-7.875-3.544-7.875-7.875C1.125 4.67 4.67 1.125 9 1.125zM9 0C4.05 0 0 4.05 0 9s4.05 9 9 9 9-4.05 9-9-4.05-9-9-9z"/><path d="M9 5.625c-.17 0-.28-.056-.394-.17-.112-.11-.168-.224-.168-.393 0-.168.056-.28.168-.393.225-.226.563-.226.788 0 .112.11.168.224.168.393 0 .168-.056.28-.168.393-.113.113-.225.17-.394.17z"/></g></svg>